<?xml version="1.0" encoding="UTF-8"?>
<svg xmlns="http://www.w3.org/2000/svg" xmlns:xlink="http://www.w3.org/1999/xlink" width="11pt" height="27pt" viewBox="0 0 11 27" version="1.1">
<g id="surface1">
<path style=" stroke:none;fill-rule:nonzero;fill:rgb(21.960784%,36.078431%,55.686275%);fill-opacity:1;" d="M 0.878906 14.429688 L 3.027344 14.429688 L 3.027344 25.898438 C 3.027344 26.125 3.167969 26.308594 3.347656 26.308594 L 6.996094 26.308594 C 7.171875 26.308594 7.3125 26.125 7.3125 25.898438 L 7.3125 14.484375 L 9.785156 14.484375 C 9.945312 14.484375 10.082031 14.328125 10.097656 14.121094 L 10.476562 9.898438 C 10.488281 9.78125 10.457031 9.664062 10.398438 9.578125 C 10.335938 9.488281 10.253906 9.441406 10.160156 9.441406 L 7.3125 9.441406 L 7.3125 6.792969 C 7.3125 5.996094 7.644531 5.59375 8.296875 5.59375 C 8.390625 5.59375 10.160156 5.59375 10.160156 5.59375 C 10.335938 5.59375 10.480469 5.410156 10.480469 5.179688 L 10.480469 1.304688 C 10.480469 1.078125 10.335938 0.894531 10.160156 0.894531 L 7.59375 0.894531 C 7.574219 0.894531 7.535156 0.886719 7.472656 0.886719 C 7.027344 0.886719 5.480469 1.003906 4.257812 2.457031 C 2.90625 4.070312 3.09375 6.003906 3.136719 6.339844 L 3.136719 9.433594 L 0.878906 9.433594 C 0.703125 9.433594 0.558594 9.617188 0.558594 9.847656 L 0.558594 14.015625 C 0.5625 14.246094 0.707031 14.429688 0.878906 14.429688 Z M 0.878906 14.429688 "/>
</g>
</svg>
