<?xml version="1.0" encoding="utf-8"?>
<svg version="1.1" id="Layer_1" xmlns="http://www.w3.org/2000/svg" xmlns:xlink="http://www.w3.org/1999/xlink" x="0px" y="0px"
	 viewBox="-113 264 287 544" style="enable-background:new -113 264 287 544;" xml:space="preserve">
<style type="text/css">
	.st0{fill:#385C8E;}
</style>
<path class="st0" d="M-90.1,554.7H-34v231.1c0,4.6,3.7,8.3,8.3,8.3h95.2c4.6,0,8.3-3.7,8.3-8.3v-230h64.5c4.2,0,7.7-3.1,8.2-7.3
	l9.8-85.1c0.3-2.3-0.5-4.7-2-6.4c-1.6-1.8-3.8-2.8-6.2-2.8H77.8v-53.3c0-16.1,8.7-24.2,25.7-24.2c2.4,0,48.6,0,48.6,0
	c4.6,0,8.3-3.7,8.3-8.3v-78.1c0-4.6-3.7-8.3-8.3-8.3h-67c-0.5,0-1.5-0.1-3.1-0.1c-11.6,0-52,2.3-83.9,31.6
	C-37.2,346-32.3,385-31.2,391.7v62.4h-58.9c-4.6,0-8.3,3.7-8.3,8.3v84C-98.3,551-94.6,554.7-90.1,554.7z"/>
</svg>
